#!OML:ASF H:\Punching\Project 1\Capture day 1\Session 1\female.ASF
:FULLY-SPECIFIED
:DEGREES
2157
root -3.07524 15.7357 7.65735 13.8541 -1.08911 2.29991
lowerback -2.09681 -1.3773 0.698488
upperback -6.13927 -1.88247 -0.92387
thorax -5.22443 -1.00199 -1.29911
lowerneck -12.1069 4.21631 9.10397
upperneck 22.2314 4.84227 -4.04143
head 9.32574 2.59586 -2.34584
rclavicle 1.73476e-014 -2.25496e-015
rhumerus -49.734 -5.90309 -74.4477
rradius 35.7955
rwrist -9.56046
rhand -17.9857 -6.69406
rfingers 7.12502
rthumb 8.28415 -36.5116
lclavicle 1.73476e-014 -2.25496e-015
lhumerus -62.7344 8.82616 73.6559
lradius 45.756
lwrist 8.30357
lhand -16.5033 17.2
lfingers 7.12502
lthumb 9.7146 46.9559
rfemur -15.9943 3.2115 19.3315
rtibia 28.4214
rfoot -22.8361 -22.5235
rtoes 1.64304
lfemur -19.0775 -6.87032 -11.2818
ltibia 25.1306
lfoot -13.0996 15.2647
ltoes -4.54425
2158
root -3.06591 15.7348 7.63804 13.9058 -0.826274 2.31982
lowerback -2.23593 -1.44851 0.673414
upperback -6.21449 -1.97518 -0.840515
thorax -5.22346 -1.04517 -1.19906
lowerneck -12.07 4.21385 9.07312
upperneck 22.4152 4.87279 -4.11948
head 9.38585 2.60209 -2.36575
rclavicle 8.74623e-015 1.3741e-014
rhumerus -49.8611 -6.87275 -73.8974
rradius 34.0472
rwrist -8.50051
rhand -17.5884 -6.98423
rfingers 7.12502
rthumb 8.66757 -36.7863
lclavicle 8.74623e-015 1.3741e-014
lhumerus -62.9213 9.26245 73.9199
lradius 44.2795
lwrist 7.94981
lhand -15.8086 17.4497
lfingers 7.12502
lthumb 10.3848 47.1733
rfemur -16.1399 3.23281 19.3034
rtibia 28.5536
rfoot -22.904 -22.7263
rtoes 1.79083
lfemur -18.4282 -6.98246 -11.5044
ltibia 24.9566
lfoot -13.4451 15.3359
ltoes -4.90115
2159
root -3.05465 15.7338 7.61996 13.9552 -0.572692 2.32827
lowerback -2.37892 -1.51149 0.66287
upperback -6.28921 -2.05653 -0.753711
thorax -5.21959 -1.08324 -1.10423
lowerneck -12.036 4.20605 9.0352
upperneck 22.6145 4.89922 -4.20321
head 9.45163 2.60524 -2.38713
rclavicle 4.80888e-015 1.63997e-015
rhumerus -50.0337 -7.90897 -73.2188
rradius 32.4616
rwrist -7.16138
rhand -16.8276 -7.53837
rfingers 7.12502
rthumb 9.40165 -37.3087
lclavicle 4.80888e-015 1.63997e-015
lhumerus -63.1038 9.68458 74.1558
lradius 42.902
lwrist 7.52736
lhand -14.8658 17.6535
lfingers 7.12502
lthumb 11.2941 47.3294
rfemur -16.2725 3.26063 19.2779
rtibia 28.6785
rfoot -22.9834 -22.9182
rtoes 1.96295
lfemur -17.7717 -7.1144 -11.7194
ltibia 24.7468
lfoot -13.7648 15.451
ltoes -5.22384
2160
root -3.04116 15.7325 7.60318 13.9991 -0.326423 2.33361
lowerback -2.52188 -1.56708 0.663184
upperback -6.36416 -2.12785 -0.666188
thorax -5.21591 -1.11678 -1.01519
lowerneck -12.0027 4.19307 8.99133
upperneck 22.8303 4.92221 -4.29415
head 9.52322 2.60557 -2.41069
rclavicle 3.86321e-014 2.83268e-015
rhumerus -50.2625 -9.00733 -72.4001
rradius 31.0644
rwrist -5.55236
rhand -15.6025 -8.38728
rfingers 7.12502
rthumb 10.5836 -38.1008
lclavicle 3.86321e-014 2.83268e-015
lhumerus -63.2897 10.0757 74.3844
lradius 41.6574
lwrist 7.09617
lhand -13.6855 17.8125
lfingers 7.12502
lthumb 12.4323 47.4228
rfemur -16.3925 3.28101 19.2453
rtibia 28.7993
rfoot -23.0638 -23.0979
rtoes 2.11712
lfemur -17.1045 -7.26983 -11.9383
ltibia 24.4984
lfoot -14.0528 15.606
ltoes -5.57575
2161
root -3.02529 15.7308 7.58796 14.0354 -0.0881983 2.3386
lowerback -2.66548 -1.61406 0.675069
upperback -6.43704 -2.18762 -0.580886
thorax -5.20982 -1.14514 -0.935423
lowerneck -11.9775 4.17554 8.94536
upperneck 23.0653 4.94187 -4.3947
head 9.60324 2.60307 -2.43785
rclavicle -1.76111e-014 1.2921e-015
rhumerus -50.5449 -10.1383 -71.4689
rradius 29.8446
rwrist -3.81424
rhand -13.9912 -9.38563
rfingers 7.12502
rthumb 12.1376 -39.0135
lclavicle -1.76111e-014 1.2921e-015
lhumerus -63.4831 10.4117 74.6298
lradius 40.5801
lwrist 6.7175
lhand -12.2993 17.9162
lfingers 7.12502
lthumb 13.7685 47.4406
rfemur -16.4954 3.28554 19.2027
rtibia 28.9176
rfoot -23.1494 -23.2567
rtoes 2.25933
lfemur -16.4205 -7.45332 -12.1644
ltibia 24.2068
lfoot -14.3196 15.7953
ltoes -5.96785
2162
root -3.00729 15.7288 7.57384 14.0633 0.132858 2.33837
lowerback -2.80411 -1.65231 0.694732
upperback -6.50525 -2.23559 -0.493674
thorax -5.20149 -1.16789 -0.858356
lowerneck -11.9623 4.15685 8.89675
upperneck 23.3121 4.96242 -4.50324
head 9.68978 2.59968 -2.46739
rclavicle -2.21746e-014 -3.77691e-015
rhumerus -50.8638 -11.2536 -70.4674
rradius 28.7946
rwrist -2.11367
rhand -12.0866 -10.3634
rfingers 7.12502
rthumb 13.9736 -39.8738
lclavicle -2.21746e-014 -3.77691e-015
lhumerus -63.6819 10.6937 74.9042
lradius 39.6968
lwrist 6.42727
lhand -10.7299 17.9611
lfingers 7.12502
lthumb 15.2807 47.3767
rfemur -16.5881 3.29457 19.1543
rtibia 29.0326
rfoot -23.224 -23.4101
rtoes 2.37046
lfemur -15.7239 -7.66772 -12.3905
ltibia 23.8668
lfoot -14.5687 16.0307
ltoes -6.44077
2163
root -2.98693 15.7266 7.561 14.0838 0.34213 2.33451
lowerback -2.93838 -1.68397 0.726396
upperback -6.57082 -2.27473 -0.406921
thorax -5.19312 -1.18681 -0.788668
lowerneck -11.9543 4.13835 8.85221
upperneck 23.571 4.98496 -4.62105
head 9.78281 2.59637 -2.50083
rclavicle -1.47427e-014 1.98785e-016
rhumerus -51.2115 -12.2969 -69.4576
rradius 27.9045
rwrist -0.640023
rhand -10.0413 -11.2105
rfingers 7.12502
rthumb 15.9439 -40.5742
lclavicle -1.47427e-014 1.98785e-016
lhumerus -63.8984 10.9095 75.2158
lradius 39.0342
lwrist 6.24639
lhand -9.00036 17.9674
lfingers 7.12502
lthumb 16.9461 47.2481
rfemur -16.6657 3.29312 19.0991
rtibia 29.1415
rfoot -23.2911 -23.547
rtoes 2.46423
lfemur -15.0207 -7.92324 -12.6162
ltibia 23.4717
lfoot -14.8171 16.3189
ltoes -6.95745
